<svg xmlns="http://www.w3.org/2000/svg" viewBox="0 0 64 64">
  <rect x="2" y="2" width="60" height="60" rx="14" fill="#10283f"/>
  <circle cx="32" cy="32" r="22" fill="#fffdf7" stroke="#e6dbc1" stroke-width="2"/>

  <g fill="none" stroke="#9d3f2f" stroke-linecap="round">
    <path d="M20 14.5c9 8.5 9 26.5 0 35" stroke-width="3"/>
    <path d="M44 14.5c-9 8.5-9 26.5 0 35" stroke-width="3"/>

    <path d="m20.5 20 4-1.5m-5 7 4.5-1m-5 7.5 4.5-.2m-4 7 4.5 1m-3.5 5.5 4 1.5" stroke-width="2"/>
    <path d="m43.5 20-4-1.5m5 7-4.5-1m5 7.5-4.5-.2m4 7-4.5 1m3.5 5.5-4 1.5" stroke-width="2"/>
  </g>
</svg>
